<?xml version="1.0" standalone="no"?><!DOCTYPE svg PUBLIC "-//W3C//DTD SVG 1.1//EN" "http://www.w3.org/Graphics/SVG/1.1/DTD/svg11.dtd"><svg t="1747821574472" class="icon" viewBox="0 0 1024 1024" version="1.1" xmlns="http://www.w3.org/2000/svg" p-id="18496" xmlns:xlink="http://www.w3.org/1999/xlink" width="200" height="200"><path d="M811.2128 983.04H212.7872a82.7392 82.7392 0 0 1-82.6368-82.6368V123.5968A82.7392 82.7392 0 0 1 212.7872 40.96h357.5808a82.2784 82.2784 0 0 1 57.1392 22.9376l240.64 230.4a82.9952 82.9952 0 0 1 25.6 59.6992v546.4064A82.7392 82.7392 0 0 1 811.2128 983.04zM212.7872 81.4592a42.1376 42.1376 0 0 0-42.0864 42.0864v776.8576a42.1376 42.1376 0 0 0 42.0864 42.0864h598.4256a42.1376 42.1376 0 0 0 42.0864-42.0864V353.9456a42.2912 42.2912 0 0 0-13.0048-30.4128l-240.64-230.4a41.8816 41.8816 0 0 0-29.1328-11.6736z" p-id="18497" fill="#ffffff"></path><path d="M875.52 350.1056h-245.0944A51.9168 51.9168 0 0 1 578.56 298.2912V67.1232h40.4992v231.168a11.3152 11.3152 0 0 0 11.3152 11.3152H875.52zM309.8112 758.2208h374.6816V798.72H309.8112zM309.8112 565.4528h374.6816v40.4992H309.8112z" p-id="18498" fill="#ffffff"></path></svg>